<?xml version="1.0" standalone="no"?>
<!DOCTYPE svg PUBLIC "-//W3C//DTD SVG 20010904//EN"
 "http://www.w3.org/TR/2001/REC-SVG-20010904/DTD/svg10.dtd">
<svg version="1.0" xmlns="http://www.w3.org/2000/svg"
 width="1024.000000pt" height="1024.000000pt" viewBox="0 0 1024.000000 1024.000000"
 preserveAspectRatio="xMidYMid meet">
<metadata>
Created by potrace 1.16, written by Peter Selinger 2001-2019
</metadata>
<g transform="translate(0.000000,1024.000000) scale(0.100000,-0.100000)"
fill="#000000" stroke="none">
<path d="M5050 6977 c-66 -35 -80 -70 -80 -204 0 -88 -3 -115 -16 -127 -14
-14 -91 -16 -702 -16 -634 0 -690 -1 -722 -18 -104 -52 -106 -201 -4 -259 l39
-23 686 0 c795 0 719 12 719 -111 0 -45 -5 -82 -12 -92 -12 -15 -61 -17 -546
-19 l-534 -3 -29 -33 -29 -32 0 -600 0 -599 24 -28 24 -28 537 -5 c517 -5 537
-6 551 -24 12 -17 14 -115 14 -601 0 -551 -1 -583 -18 -598 -17 -15 -59 -17
-393 -17 -409 0 -418 -1 -461 -60 -45 -61 -27 -168 35 -212 l32 -23 945 -3
c906 -2 946 -2 980 16 104 56 108 201 8 262 -31 19 -51 20 -415 20 l-382 0
-15 22 c-14 20 -16 93 -16 599 l0 578 26 20 c26 21 36 21 545 21 l519 0 32 29
33 29 -4 604 c-2 338 -7 611 -12 620 -25 47 -35 48 -593 48 -509 0 -526 1
-536 19 -13 25 -13 161 0 181 8 13 102 16 714 20 691 5 705 5 733 26 15 11 38
41 51 66 28 56 23 104 -16 150 -50 60 -29 58 -780 58 -522 0 -691 3 -700 12
-8 8 -12 52 -12 133 0 141 -13 174 -83 205 -55 26 -85 25 -137 -3z m1072
-1184 c17 -15 18 -39 18 -354 0 -338 0 -338 -22 -353 -20 -14 -130 -16 -990
-16 -713 0 -974 3 -993 12 l-25 11 0 348 c0 321 1 349 18 358 11 7 350 10 996
11 898 0 981 -1 998 -17z"/>
<path d="M4415 5583 c-92 -24 -134 -150 -77 -231 46 -64 20 -62 776 -62 777 0
746 -3 791 75 42 70 26 152 -39 198 l-31 22 -700 1 c-385 1 -709 0 -720 -3z"/>
<path d="M4460 4605 c-20 -10 -172 -152 -365 -343 -181 -180 -433 -428 -558
-552 -126 -123 -237 -235 -248 -248 -26 -34 -25 -105 3 -150 22 -37 85 -72
128 -71 48 0 81 25 213 155 73 72 328 323 567 558 239 236 440 438 447 449 31
56 5 155 -49 191 -36 24 -98 28 -138 11z"/>
<path d="M5660 4598 c-73 -37 -104 -137 -62 -199 9 -14 213 -219 452 -454 239
-236 492 -486 562 -556 101 -101 136 -130 168 -139 82 -22 168 27 190 109 20
77 20 77 -417 506 -224 220 -483 474 -576 565 -92 91 -180 170 -195 177 -40
18 -73 16 -122 -9z"/>
<path d="M3561 4590 c-118 -25 -158 -162 -71 -245 l31 -30 154 -3 c128 -3 160
-1 189 13 98 47 100 194 5 250 -28 16 -54 20 -149 22 -63 1 -135 -2 -159 -7z"/>
<path d="M6463 4591 c-73 -5 -85 -9 -113 -36 -61 -58 -60 -158 1 -209 42 -36
56 -38 222 -34 l146 3 31 30 c57 54 61 153 7 203 -51 48 -111 57 -294 43z"/>
</g>
</svg>
